<svg width="64" height="64" viewBox="0 0 64 64" fill="none" xmlns="http://www.w3.org/2000/svg">
<path d="M44 33.9687C41.0682 35.2144 36.7788 36 32 36C27.2212 36 22.9318 35.2144 20 33.9687L20 30C20 26.6863 17.3137 24 14 24L6 24C4.89543 24 4 24.8954 4 26C4 27.1046 4.89543 28 6 28L14 28C15.1046 28 16 28.8954 16 30L16 34C16 37.3137 23.1634 40 32 40C40.8366 40 48 37.3137 48 34V30C48 28.8954 48.8954 28 50 28L58 28C59.1046 28 60 27.1046 60 26C60 24.8954 59.1046 24 58 24L50 24C46.6863 24 44 26.6863 44 30V33.9687Z" fill="black"/>
</svg>
