<svg width="64" height="64" viewBox="0 0 64 64" fill="none" xmlns="http://www.w3.org/2000/svg">
<path d="M20 30.0313C22.9318 28.7856 27.2212 28 32 28C36.7788 28 41.0682 28.7856 44 30.0313V34C44 37.3137 46.6863 40 50 40H58C59.1046 40 60 39.1046 60 38C60 36.8954 59.1046 36 58 36H50C48.8954 36 48 35.1046 48 34V30C48 26.6863 40.8366 24 32 24C23.1634 24 16 26.6863 16 30V34C16 35.1046 15.1046 36 14 36H6C4.89543 36 4 36.8954 4 38C4 39.1046 4.89543 40 6 40H14C17.3137 40 20 37.3137 20 34V30.0313Z" fill="black"/>
</svg>
